<?xml version="1.0" encoding="utf-8"?>
<svg viewBox="7.162 202.1732 479.1919 112.2091" xmlns="http://www.w3.org/2000/svg" xmlns:bx="https://boxy-svg.com">
  <ellipse style="fill: rgb(80, 64, 153);" cx="37.782" cy="251.189" rx="30.62" ry="30.62" transform="matrix(0.9999999999999999, 0, 0, 1, 0, 0)"/>
  <path d="M 358.536 197.431 L 392.187 264.734 L 324.884 264.734 L 358.536 197.431 Z" style="fill: rgb(255, 253, 140); transform-origin: 358.536px 231.082px;" transform="matrix(0.819151103497, -0.57357698679, 0.573575019836, 0.819153010845, -216.861126718235, 36.432090593069)" bx:shape="triangle 324.884 197.431 67.303 67.303 0.5 0 1@01893458"/>
  <path d="M 165.416 251.185 L 195.299 272.896 L 183.885 308.026 L 146.947 308.026 L 135.533 272.896 Z" style="fill: rgb(151, 255, 244); transform-origin: 165.416px 279.606px;" transform="matrix(0.970295011997, 0.241923004389, -0.241921007633, 0.970296025276, 138.040697504047, -42.62664415989)" bx:shape="n-gon 165.416 282.606 31.421 31.421 5 0 1@6e657a9b"/>
  <rect x="440.82" y="246.642" width="53.358" height="53.358" style="fill: rgb(237, 123, 123); transform-origin: 467.499px 273.321px;" transform="matrix(0.913545131683, 0.406738013029, -0.406736016274, 0.913546144962, -16.368906868619, -0.98892256543)"/>
  <path d="M 27.225 270.289 L 27.225 238.914 L 46.05 238.914 L 46.05 245.189 L 52.325 245.189 L 52.325 251.464 L 46.05 251.464 L 46.05 264.014 L 52.325 264.014 L 52.325 270.289 L 46.05 270.289 L 46.05 264.014 L 39.775 264.014 L 39.775 257.739 L 33.5 257.739 L 33.5 270.289 Z M 33.5 251.464 L 45.799 251.464 L 45.799 245.189 L 33.5 245.189 Z" style="fill: rgb(255, 255, 255); pointer-events: none; text-transform: uppercase; white-space: pre;"/>
  <path d="M 64.865 270.289 L 64.865 238.914 L 83.69 238.914 L 83.69 245.189 L 71.14 245.189 L 71.14 251.464 L 83.69 251.464 L 83.69 257.739 L 71.14 257.739 L 71.14 264.014 L 83.69 264.014 L 83.69 270.289 Z" style="fill: rgb(255, 255, 255); pointer-events: none; text-transform: uppercase; white-space: pre;"/>
  <path d="M 102.496 270.289 L 102.496 245.189 L 96.221 245.189 L 96.221 238.914 L 115.046 238.914 L 115.046 245.189 L 108.771 245.189 L 108.771 270.289 Z" style="fill: rgb(255, 255, 255); pointer-events: none; text-transform: uppercase; white-space: pre;"/>
  <path d="M 127.593 270.289 L 127.593 238.914 L 146.418 238.914 L 146.418 245.189 L 152.693 245.189 L 152.693 251.464 L 146.418 251.464 L 146.418 264.014 L 152.693 264.014 L 152.693 270.289 L 146.418 270.289 L 146.418 264.014 L 140.143 264.014 L 140.143 257.739 L 133.868 257.739 L 133.868 270.289 Z M 133.868 251.464 L 146.167 251.464 L 146.167 245.189 L 133.868 245.189 Z" style="fill: rgb(255, 255, 255); pointer-events: none; text-transform: uppercase; white-space: pre;"/>
  <path d="M 171.509 270.289 L 171.509 264.014 L 165.234 264.014 L 165.234 245.189 L 171.509 245.189 L 171.509 238.914 L 184.059 238.914 L 184.059 245.189 L 190.334 245.189 L 190.334 264.014 L 184.059 264.014 L 184.059 270.289 Z M 171.509 263.763 L 184.059 263.763 L 184.059 245.44 L 171.509 245.44 Z" style="fill: rgb(255, 255, 255); pointer-events: none; text-transform: uppercase; white-space: pre;"/>
  <path d="M 209.166 245.189 L 209.166 238.914 L 227.991 238.914 L 227.991 245.189 Z M 202.891 264.014 L 202.891 245.189 L 209.166 245.189 L 209.166 264.014 Z M 221.716 264.014 L 221.716 257.739 L 215.441 257.739 L 215.441 251.464 L 227.991 251.464 L 227.991 264.014 Z M 209.166 270.289 L 209.166 264.014 L 221.716 264.014 L 221.716 270.289 Z" style="fill: rgb(255, 255, 255); pointer-events: none; text-transform: uppercase; white-space: pre;"/>
  <path d="M 240.532 270.289 L 240.532 245.189 L 246.807 245.189 L 246.807 238.914 L 259.357 238.914 L 259.357 245.189 L 265.632 245.189 L 265.632 270.289 L 259.357 270.289 L 259.357 257.739 L 246.807 257.739 L 246.807 270.289 Z M 246.807 251.464 L 259.357 251.464 L 259.357 245.44 L 246.807 245.44 Z" style="fill: rgb(255, 255, 255); pointer-events: none; text-transform: uppercase; white-space: pre;"/>
  <path d="M 278.172 270.289 L 278.172 238.914 L 284.447 238.914 L 284.447 245.189 L 290.722 245.189 L 290.722 251.464 L 296.997 251.464 L 296.997 257.739 L 290.722 257.739 L 290.722 251.464 L 284.447 251.464 L 284.447 270.289 Z M 303.272 270.289 L 303.272 251.464 L 296.997 251.464 L 296.997 245.189 L 303.272 245.189 L 303.272 238.914 L 309.547 238.914 L 309.547 270.289 Z" style="fill: rgb(255, 255, 255); pointer-events: none; text-transform: uppercase; white-space: pre;"/>
  <path d="M 322.08 270.289 L 322.08 238.914 L 340.905 238.914 L 340.905 245.189 L 328.355 245.189 L 328.355 251.464 L 340.905 251.464 L 340.905 257.739 L 328.355 257.739 L 328.355 264.014 L 340.905 264.014 L 340.905 270.289 Z" style="fill: rgb(255, 255, 255); pointer-events: none; text-transform: uppercase; white-space: pre;"/>
  <path d="M 359.728 245.189 L 359.728 238.914 L 378.553 238.914 L 378.553 245.189 Z M 372.278 264.014 L 372.278 257.739 L 359.728 257.739 L 359.728 251.464 L 353.453 251.464 L 353.453 245.189 L 359.728 245.189 L 359.728 251.464 L 372.278 251.464 L 372.278 257.739 L 378.553 257.739 L 378.553 264.014 Z M 353.453 270.289 L 353.453 264.014 L 372.278 264.014 L 372.278 270.289 Z" style="fill: rgb(255, 255, 255); pointer-events: none; text-transform: uppercase; white-space: pre;"/>
  <path d="M 391.093 270.289 L 391.093 264.014 L 397.368 264.014 L 397.368 270.289 Z" style="fill: rgb(255, 255, 255); pointer-events: none; text-transform: uppercase; white-space: pre;"/>
  <path d="M 416.188 245.189 L 416.188 238.914 L 435.013 238.914 L 435.013 245.189 Z M 409.913 264.014 L 409.913 245.189 L 416.188 245.189 L 416.188 264.014 Z M 428.738 264.014 L 428.738 257.739 L 422.463 257.739 L 422.463 251.464 L 435.013 251.464 L 435.013 264.014 Z M 416.188 270.289 L 416.188 264.014 L 428.738 264.014 L 428.738 270.289 Z" style="fill: rgb(255, 255, 255); pointer-events: none; text-transform: uppercase; white-space: pre;"/>
  <path d="M 453.846 245.189 L 453.846 238.914 L 472.671 238.914 L 472.671 245.189 Z M 447.571 264.014 L 447.571 245.189 L 453.846 245.189 L 453.846 264.014 Z M 466.396 264.014 L 466.396 257.739 L 460.121 257.739 L 460.121 251.464 L 472.671 251.464 L 472.671 264.014 Z M 453.846 270.289 L 453.846 264.014 L 466.396 264.014 L 466.396 270.289 Z" style="fill: rgb(255, 255, 255); pointer-events: none; text-transform: uppercase; white-space: pre;"/>
</svg>